G04 Layer: TopPasteMaskLayer*
G04 EasyEDA v6.5.15, 2022-10-03 11:07:23*
G04 82e3b97fe29b4ff0857f1a4285c62441,66c55e30cdf9462d94a9035e6fafb5ba,10*
G04 Gerber Generator version 0.2*
G04 Scale: 100 percent, Rotated: No, Reflected: No *
G04 Dimensions in inches *
G04 leading zeros omitted , absolute positions ,3 integer and 6 decimal *
%FSLAX36Y36*%
%MOIN*%

%AMMACRO1*4,1,4,-0.0295,-0.0079,-0.0295,0.0079,0.0295,0.0079,0.0295,-0.0079,-0.0295,-0.0079,0*%
%ADD10R,0.0591X0.0177*%
%ADD11MACRO1*%
%ADD12R,0.1417X0.0945*%
%ADD13O,0.013504X0.06876*%
%ADD14R,0.0591X0.0535*%
%ADD15R,0.0315X0.0354*%

%LPD*%
G36*
X664260Y2319020D02*
G01*
X662280Y2317040D01*
X662280Y2285560D01*
X664260Y2283580D01*
X673220Y2283580D01*
X673220Y2298160D01*
X686220Y2298160D01*
X686220Y2283580D01*
X695740Y2283580D01*
X697720Y2285560D01*
X697720Y2317040D01*
X695740Y2319020D01*
G37*
G36*
X664260Y2256020D02*
G01*
X662280Y2254060D01*
X662280Y2222960D01*
X664260Y2220980D01*
X695740Y2220980D01*
X697720Y2222960D01*
X697720Y2254060D01*
X695740Y2256020D01*
X686220Y2256020D01*
X686220Y2241060D01*
X673220Y2241060D01*
X673220Y2256020D01*
G37*
D10*
G01*
X800000Y2103780D03*
G01*
X800000Y2076219D03*
G01*
X985000Y2038780D03*
G01*
X985000Y2011219D03*
G01*
X800000Y2163780D03*
G01*
X800000Y2136219D03*
G01*
X885000Y2163780D03*
G01*
X885000Y2136219D03*
G01*
X985000Y2158780D03*
G01*
X985000Y2131219D03*
G01*
X885000Y2076219D03*
G01*
X885000Y2103780D03*
G01*
X985000Y2098780D03*
G01*
X985000Y2071219D03*
G01*
X800000Y2043780D03*
G01*
X800000Y2016219D03*
D11*
G01*
X883463Y2017795D03*
G01*
X883463Y2043386D03*
D12*
G01*
X880000Y2425000D03*
D13*
G01*
X995159Y2538119D03*
G01*
X969570Y2538119D03*
G01*
X943980Y2538119D03*
G01*
X918389Y2538119D03*
G01*
X892799Y2538119D03*
G01*
X867209Y2538119D03*
G01*
X841610Y2538119D03*
G01*
X816019Y2538119D03*
G01*
X790429Y2538119D03*
G01*
X764840Y2538119D03*
G01*
X995159Y2311880D03*
G01*
X969570Y2311880D03*
G01*
X943980Y2311880D03*
G01*
X918389Y2311880D03*
G01*
X892799Y2311880D03*
G01*
X867209Y2311880D03*
G01*
X841610Y2311880D03*
G01*
X816019Y2311880D03*
G01*
X790429Y2311880D03*
G01*
X764840Y2311880D03*
D14*
G01*
X877240Y1800000D03*
G01*
X782759Y1800000D03*
D15*
G01*
X677440Y1940000D03*
G01*
X732559Y1940000D03*
G01*
X587559Y1850000D03*
G01*
X532440Y1850000D03*
M02*
